
<svg xmlns="http://www.w3.org/2000/svg" viewBox="0 0 448 512">
  <path fill="white" d="M224.1 141c-63.6 0-114.9 51.3-114.9 114.9s51.3 114.9 114.9 114.9 
  114.9-51.3 114.9-114.9S287.7 141 224.1 141zm0 186.6c-39.5 0-71.6-32.1-71.6-71.6 
  s32.1-71.6 71.6-71.6 71.6 32.1 71.6 71.6-32.1 71.6-71.6 71.6zm146.4-194.3c0 
  14.9-12.1 27-27 27s-27-12.1-27-27 12.1-27 27-27 27 12.1 27 27zm76.1 
  27.2c-.9-19.6-5.2-37-19.1-50.9s-31.3-18.2-50.9-19.1c-20-1.1-80-1.1-100 
  0-19.6.9-37 5.2-50.9 19.1s-18.2 31.3-19.1 50.9c-1.1 20-1.1 80 0 100 
  .9 19.6 5.2 37 19.1 50.9s31.3 18.2 50.9 19.1c20 1.1 80 1.1 100 
  0 19.6-.9 37-5.2 50.9-19.1s18.2-31.3 19.1-50.9c1.1-20 1.1-80 
  0-100zM398.8 388c-7.8 19.6-23.2 35-42.8 42.8-29.6 11.8-100 
  9.1-133.9 9.1s-104.3 2.6-133.9-9.1c-19.6-7.8-35-23.2-42.8-42.8-11.8-29.6-9.1-100-9.1-133.9s-2.6-104.3 
  9.1-133.9c7.8-19.6 23.2-35 42.8-42.8 29.6-11.8 100-9.1 
  133.9-9.1s104.3-2.6 133.9 9.1c19.6 7.8 35 23.2 42.8 
  42.8 11.8 29.6 9.1 100 9.1 133.9s2.7 104.3-9.1 133.9z"/>
</svg>
