
<svg xmlns="http://www.w3.org/2000/svg" viewBox="0 0 168 168">
  <circle cx="84" cy="84" r="84" fill="#1DB954"/>
  <path fill="#fff" d="M119.3 117.1c-1.5 2.5-4.7 3.3-7.2 1.8-19.8-12.1-44.8-14.9-74.4-8.3-2.9.6-5.8-1.3-6.4-4.2
  -.6-2.9 1.3-5.8 4.2-6.4 33.5-7.4 62.1-4.1 84.5 9.6 2.5 1.4 3.3 4.6 1.8 7.1z"/>
  <path fill="#fff" d="M112.3 99.5c-1.2 2-3.8 2.7-5.8 1.5-16.4-10-37-12.3-61.2-6.8-2.3.5-4.5-1-5-3.2-.5-2.3 1-4.5 3.2-5 
  28.2-6.2 52.2-3.4 71 8 2 1.2 2.7 3.8 1.5 5.8z"/>
  <path fill="#fff" d="M105.4 81.6c-1 1.6-3.1 2.2-4.7 1.2-14-8.6-35.4-10.6-52.1-5.8-1.8.5-3.7-.5-4.2-2.3-.5-1.8.5-3.7 
  2.3-4.2 20.1-5.6 44.6-3.3 61 6.5 1.6 1 2.2 3.1 1.2 4.7z"/>
</svg>
